<?xml version="1.0" encoding="utf-8"?>
<svg id="master-artboard" viewBox="0 0 1489.020263671875 980" version="1.1" xmlns="http://www.w3.org/2000/svg" x="0px" y="0px" style="enable-background:new 0 0 1400 980;" width="1489.020263671875px" height="980px"><rect id="ee-background" x="0" y="0" width="1489.020263671875" height="980" style="fill: white; fill-opacity: 0; pointer-events: none;"/><defs><linearGradient id="gradient-0" gradientUnits="userSpaceOnUse" x1="700" y1="521.5000610351562" x2="700" y2="772.5000610351562">
                <stop offset="0" style="stop-color: #194bff"/>
                <stop offset="1" style="stop-color: #0027b2"/>
              </linearGradient><linearGradient id="gradient-1" gradientUnits="userSpaceOnUse" x1="699.9769592285156" y1="512.2122802734375" x2="699.9769592285156" y2="781.900146484375">
                <stop offset="0" style="stop-color: #ffcc99"/>
                <stop offset="1" style="stop-color: #ff9933"/>
              </linearGradient><linearGradient id="gradient-2" gradientUnits="userSpaceOnUse" x1="734.7345581054688" y1="604.5" x2="734.7345581054688" y2="770.5000610351562">
                <stop offset="0" style="stop-color: #000000"/>
                <stop offset="1" style="stop-color: #000000"/>
              </linearGradient><linearGradient id="gradient-3" gradientUnits="userSpaceOnUse" x1="646.8442687988281" y1="512.2122802734375" x2="646.8442687988281" y2="769.5">
                <stop offset="0" style="stop-color: #000000"/>
                <stop offset="1" style="stop-color: #000000"/>
              </linearGradient><linearGradient id="gradient-4" gradientUnits="userSpaceOnUse" x1="706.1902160644531" y1="639.1624145507812" x2="706.1902160644531" y2="781.7999877929688">
                <stop offset="0" style="stop-color: #000000"/>
                <stop offset="1" style="stop-color: #000000"/>
              </linearGradient><linearGradient id="gradient-5" gradientUnits="userSpaceOnUse" x1="648.8934936523438" y1="512.1534423828125" x2="648.8934936523438" y2="735.5999755859375">
                <stop offset="0" style="stop-color: #000000"/>
                <stop offset="1" style="stop-color: #000000"/>
              </linearGradient><linearGradient id="gradient-6" gradientUnits="userSpaceOnUse" x1="650.2054443359375" y1="556.699951171875" x2="650.2054443359375" y2="580">
                <stop offset="0" style="stop-color: #000000"/>
                <stop offset="1" style="stop-color: #000000"/>
              </linearGradient><linearGradient id="gradient-7" gradientUnits="userSpaceOnUse" x1="633.7500610351562" y1="566.1000366210938" x2="633.7500610351562" y2="578.2000122070312">
                <stop offset="0" style="stop-color: #000000"/>
                <stop offset="1" style="stop-color: #000000"/>
              </linearGradient><linearGradient id="gradient-8" gradientUnits="userSpaceOnUse" x1="696.300048828125" y1="527.2999877929688" x2="696.300048828125" y2="570.0999755859375">
                <stop offset="0" style="stop-color: #000000"/>
                <stop offset="1" style="stop-color: #000000"/>
              </linearGradient><linearGradient id="gradient-9" gradientUnits="userSpaceOnUse" x1="682.5499877929688" y1="535.6000366210938" x2="682.5499877929688" y2="577.9000244140625">
                <stop offset="0" style="stop-color: #000000"/>
                <stop offset="1" style="stop-color: #000000"/>
              </linearGradient><linearGradient id="gradient-10" gradientUnits="userSpaceOnUse" x1="666.9500122070312" y1="544.7000122070312" x2="666.9500122070312" y2="585">
                <stop offset="0" style="stop-color: #000000"/>
                <stop offset="1" style="stop-color: #000000"/>
              </linearGradient><linearGradient id="gradient-11" gradientUnits="userSpaceOnUse" x1="693.6000061035156" y1="566.5" x2="693.6000061035156" y2="592.4000244140625">
                <stop offset="0" style="stop-color: #000000"/>
                <stop offset="1" style="stop-color: #000000"/>
              </linearGradient><linearGradient id="gradient-12" gradientUnits="userSpaceOnUse" x1="666.9183959960938" y1="585.1000366210938" x2="666.9183959960938" y2="726.4000244140625">
                <stop offset="0" style="stop-color: #000000"/>
                <stop offset="1" style="stop-color: #000000"/>
              </linearGradient><linearGradient id="gradient-13" gradientUnits="userSpaceOnUse" x1="749.1999816894531" y1="671.7999877929688" x2="749.1999816894531" y2="728.0999755859375">
                <stop offset="0" style="stop-color: #000000"/>
                <stop offset="1" style="stop-color: #000000"/>
              </linearGradient><linearGradient id="gradient-14" gradientUnits="userSpaceOnUse" x1="793.4999694824219" y1="710.7000122070312" x2="793.4999694824219" y2="722">
                <stop offset="0" style="stop-color: #000000"/>
                <stop offset="1" style="stop-color: #000000"/>
              </linearGradient></defs>


<path id="XMLID_193_" d="M753.4,242.2C753.4,242.2,753.4,242.2,753.4,242.2c0.1-0.1,0.2-0.1,0.2-0.1c0.1-0.1,0.3-0.2,0.5-0.2&#10;&#9;&#9;&#9;&#9;c0.4-0.1,0.8-0.1,1,0.1c0.2,0.2,0.4,0.6,0.3,1c0,0.2,0,0.4-0.1,0.6c0,0.1,0,0.2-0.1,0.2c0,0,0,0.1,0,0.1s0,0-0.1,0&#10;&#9;&#9;&#9;&#9;c0,0-0.1,0.1-0.2,0.1c-0.1,0.1-0.3,0.2-0.5,0.2c-0.4,0.1-0.8,0.1-1-0.1c-0.2-0.2-0.4-0.6-0.3-1c0-0.2,0-0.4,0.1-0.6&#10;&#9;&#9;&#9;&#9;C753.3,242.4,753.3,242.4,753.4,242.2C753.4,242.3,753.4,242.2,753.4,242.2z" transform="matrix(1, 0, 0, 1, 0, 7.105427357601002e-15)"/>




<defs><style id="ee-google-fonts">@import url(https://fonts.googleapis.com/css?family=Bangers:400);</style></defs><path d="M 825.5 647 A 125.5 125.5 0 0 1 700 772.5 A 125.5 125.5 0 0 1 574.5 647 A 125.5 125.5 0 0 1 700 521.5 A 125.5 125.5 0 0 1 825.5 647 Z" id="path-1" class="st0" style="fill: url('#gradient-0');" transform="matrix(1.9111000035355727, 0, 0, 1.9111000035355727, -294.8379741865055, -812.5294642183619)"/><path id="path-2" class="st4" d="M587.4,641.5c2.8-16.4,5-30,6.8-42.1c6.6-42.2,9-58,23.2-65.6c8.8-4.7,28.2-11.5,46.2-16.2&#10;&#9;&#9;c35.3-9.3,39.7-4.1,41.1-2.4c5.1,6.1,7.5,21.8,8.1,26.5c1,7.6,2.1,20.9-1.8,24.8c-0.6,0.6-1.7,1.4-3.1,2.4&#10;&#9;&#9;c-1.3,5.3-4.6,17.9-8,21.1c-1.6,1.6-4.1,2.4-6.8,2.4c-1,0-2.1-0.1-3.1-0.4c-4.1-1-7.6-3.9-9.8-8c-7.9,3.6-15.2,6.3-18.9,6.4&#10;&#9;&#9;c-1.3,0-4.9,0.1-8.7-0.3c-1,3-2.2,11.4,6.5,26.9c1.5,2.7,3.5,6,5.7,9.4c6.1,9.9,14,22.6,18.7,36.4c4.2-4.4,12.1-11.4,23.2-16.6&#10;&#9;&#9;c15.9-7.5,41.9-12.7,75.1,5.1c14.7,7.9,25.2,19.8,30.5,34.4c4.7,13.2,5,27.9,0.9,42.7c-7.3,26.2-30.3,53.5-63.9,53.5&#10;&#9;&#9;c-1.1,0-2.2,0-3.3-0.1c-27.2-1.4-40.2-4.9-50.6-7.7c-13.5-3.6-23.2-6.2-55.7-2.8c-20.7,2.2-34.1-1.2-40-10.1&#10;&#9;&#9;c-6.3-9.6-1.6-22.1,0.7-27.1C594.2,728,576.4,704.7,587.4,641.5z" style="fill: url('#gradient-1');" transform="matrix(1.9111000035355727, 0, 0, 1.9111000035355727, -294.8379741865055, -812.5294642183619)"/><path id="path-3" d="M796.1,701.8c-5.2-14.6-15.8-26.5-30.5-34.4c-33.2-17.8-59.2-12.6-75.1-5.1c-1.8,0.9-7.5,2-7.5,2&#10;&#9;&#9;&#9;s-32.4-58.8-29.4-59.8c1.1,3.5,2.8,7.6,5.5,12.5c1.5,2.7,3.5,6,5.7,9.4c6.1,9.9,14,22.6,18.7,36.4c4.2-4.4,12.1-11.4,23.2-16.6&#10;&#9;&#9;&#9;c15.9-7.5,41.9-12.7,75.1,5.1c14.7,7.9,25.2,19.8,30.5,34.4c4.7,13.2,5,27.9,0.9,42.7c-4.4,15.7-14.3,31.7-28.8,42.1&#10;&#9;&#9;&#9;c5.9-8,10.1-17,12.6-25.9C801.1,729.7,800.8,715,796.1,701.8z" transform="matrix(1.9111000035355727, 0, 0, 1.9111000035355727, -294.8379741865055, -812.5294642183619)" style="opacity: 0.1; fill: url('#gradient-2');"/><path id="path-4" d="M587.4,641.5c2.8-16.4,5-30,6.8-42.1c6.6-42.2,9-58,23.2-65.6c8.8-4.7,28.2-11.5,46.2-16.2&#10;&#9;&#9;&#9;c35.3-9.3,39.7-4.1,41.1-2.4c2.2,2.6,3.9,7,5.1,11.5c-5.9-0.1-15.6,1.1-31.8,5.4c-18,4.7-37.4,11.5-46.2,16.2&#10;&#9;&#9;&#9;c-14.2,7.6-16.6,23.4-23.2,65.6c-1.9,12-4,25.7-6.8,42.1c-10.9,63.1,6.8,86.4,13,92.4c-1.8,4-5.2,12.9-3.2,21.1&#10;&#9;&#9;&#9;c-5.4-1.8-9.4-4.6-11.9-8.5c-6.3-9.6-1.6-22.1,0.7-27.1C594.2,728,576.4,704.7,587.4,641.5z" transform="matrix(1.9111000035355727, 0, 0, 1.9111000035355727, -294.8379741865055, -812.5294642183619)" style="opacity: 0.1; fill: url('#gradient-3');"/><g id="g-1" transform="matrix(1.9111000035355727, 0, 0, 1.9111000035355727, -294.8379741865055, -812.5294642183619)">
			<path id="path-5" d="M749.3,781.8c33.6,0,56.6-27.3,63.9-53.5c4.1-14.7,3.8-29.5-0.9-42.7c-5.2-14.6-15.8-26.5-30.5-34.4&#10;&#9;&#9;&#9;&#9;c-33.2-17.8-59.2-12.6-75.1-5.1c-17.3,8.1-26.6,20.3-26.9,20.8l4.6,3.5c0.1-0.1,9-11.7,25-19.2c21.4-10,44.8-8.3,69.7,5&#10;&#9;&#9;&#9;&#9;c30.9,16.5,35,47.2,28.5,70.4c-6.7,24.1-27.7,49.3-58.4,49.3c-1,0-2,0-3-0.1c-26.6-1.4-38.7-4.6-49.4-7.5&#10;&#9;&#9;&#9;&#9;c-13.6-3.6-24.3-6.5-57.8-3c-18.1,1.9-30.1-0.7-34.6-7.6c-5.9-9,1.9-23.1,1.9-23.2l0.6-1.1l-0.4-1.2c-0.1-0.2-6.9-22.5-0.7-50.6&#10;&#9;&#9;&#9;&#9;l-5.6-1.3c-5.8,26.3-1,47.3,0.4,52.4c-2,4-7.9,17.8-1.1,28.1c5.9,8.9,19.3,12.3,40,10.1c32.4-3.4,42.2-0.8,55.7,2.8&#10;&#9;&#9;&#9;&#9;c10.4,2.8,23.4,6.3,50.6,7.7C747.1,781.7,748.2,781.8,749.3,781.8z" style="fill: url('#gradient-4');"/>
		</g><path id="path-6" d="M602.3,735.6l3.3-4.8l-1.6,2.4l1.7-2.4c-0.1,0-6.2-4.5-10.8-17.5c-4.3-12.1-8.1-34.2-1.8-70.8&#10;&#9;&#9;&#9;&#9;c2.8-16.4,5-30.1,6.9-42.2c6.3-40.2,8.6-55.2,20.2-61.4c8.3-4.4,27.5-11.2,44.8-15.7c26-6.8,34.4-5.5,35.4-4.4&#10;&#9;&#9;&#9;&#9;c2.6,3.1,5.3,12.3,6.7,23c1.6,11.8,0.9,19.2-0.1,20.5c-3.9,3.9-37.7,21.9-45.7,22.1c-8.5,0.2-14.7-1.1-16.3-2&#10;&#9;&#9;&#9;&#9;c-0.2-1.6,0.5-6.2,5.5-9.5l-3.2-4.8c-8.1,5.4-9,13.7-7.6,16.9c2.2,5.3,18.5,5.3,21.7,5.2c9.9-0.2,44.8-18.9,49.7-23.8&#10;&#9;&#9;&#9;&#9;c3.9-3.9,2.8-17.2,1.8-24.8c-0.6-4.7-3-20.4-8.1-26.5c-1.4-1.7-5.7-6.8-41.1,2.4c-18,4.7-37.4,11.5-46.2,16.2&#10;&#9;&#9;&#9;&#9;c-14.2,7.6-16.6,23.4-23.2,65.6c-1.9,12-4,25.7-6.8,42.1C574.5,715.6,601.2,734.8,602.3,735.6z" transform="matrix(1.9111000035355727, 0, 0, 1.9111000035355727, -294.8379741865055, -812.5294642183619)" style="fill: url('#gradient-5');"/><path id="path-7" d="M654.2,580l2.7-5.1l-1.4,2.6l1.4-2.5c-0.3-0.2-8.5-4.9-7.5-17.9l-5.8-0.4&#10;&#9;&#9;&#9;&#9;C642.4,573.5,653.7,579.8,654.2,580z" transform="matrix(1.9111000035355727, 0, 0, 1.9111000035355727, -294.8379741865055, -812.5294642183619)" style="fill: url('#gradient-6');"/><path id="path-8" d="M632.4,578.2c9.8,0,17.4-7.7,17.8-8l-4.1-4.1l2.1,2l-2.1-2c-0.1,0.1-6.3,6.3-13.6,6.3c-0.1,0-0.2,0-0.3,0&#10;&#9;&#9;&#9;&#9;c-3.8-0.1-7.4-1.9-10.6-5.4l-4.3,3.9c4.3,4.7,9.3,7.2,14.8,7.3C632.1,578.2,632.2,578.2,632.4,578.2z" transform="matrix(1.9111000035355727, 0, 0, 1.9111000035355727, -294.8379741865055, -812.5294642183619)" style="fill: url('#gradient-7');"/><path id="path-9" d="M698.4,570.1l5.7-0.8c-0.1-1.1-3.6-26.3-10.3-42l-5.3,2.3C695,544.6,698.4,569.9,698.4,570.1z" transform="matrix(1.9111000035355727, 0, 0, 1.9111000035355727, -294.8379741865055, -812.5294642183619)" style="fill: url('#gradient-8');"/><path id="path-10" d="M684.1,577.9l5.7-0.8c0-0.2-2.8-21.1-9-41.5l-5.5,1.7C681.4,557.2,684.1,577.6,684.1,577.9z" transform="matrix(1.9111000035355727, 0, 0, 1.9111000035355727, -294.8379741865055, -812.5294642183619)" style="fill: url('#gradient-9');"/><path id="path-11" d="M668.5,585l5.7-0.7c-0.1-0.9-2.9-22.7-9.1-39.6l-5.4,2C665.6,563,668.4,584.7,668.5,585z" transform="matrix(1.9111000035355727, 0, 0, 1.9111000035355727, -294.8379741865055, -812.5294642183619)" style="fill: url('#gradient-10');"/><path id="path-12" d="M693.2,592.4c2.7,0,5.2-0.8,6.8-2.4c3.6-3.4,7.2-17.8,8.2-22.2l-5.6-1.3c-1.9,8.1-5,17.8-6.6,19.3&#10;&#9;&#9;&#9;&#9;c-0.7,0.7-2.5,1.1-4.6,0.6c-1.8-0.5-5.2-2-7-7.3L679,581c2,5.7,6,9.8,11.1,11C691.1,592.3,692.2,592.4,693.2,592.4z" transform="matrix(1.9111000035355727, 0, 0, 1.9111000035355727, -294.8379741865055, -812.5294642183619)" style="fill: url('#gradient-11');"/><path id="path-13" d="M666.2,726.4c17.7-13.9,24.5-31.8,20.3-53.1c-3.5-17.7-14-34.6-21.7-47c-2.1-3.4-4.1-6.7-5.7-9.4&#10;&#9;&#9;&#9;&#9;c-11.3-20.2-5.9-28.2-5.9-28.3l0,0.1l-4.5-3.6c-0.8,1.1-7.8,11,5.4,34.7c1.6,2.9,3.6,6.2,5.8,9.6c7.4,12,17.6,28.5,20.9,45.1&#10;&#9;&#9;&#9;&#9;c3.8,19.2-2.1,34.7-18.2,47.4L666.2,726.4z" transform="matrix(1.9111000035355727, 0, 0, 1.9111000035355727, -294.8379741865055, -812.5294642183619)" style="fill: url('#gradient-12');"/><path id="path-14" d="M732.1,728.1c15.2,0,28.7-3.4,40.2-10.3c26.4-15.7,32.5-43.6,32.8-44.8l-5.7-1.2&#10;&#9;&#9;&#9;&#9;c-0.1,0.3-5.9,26.7-30.1,41.1c-19,11.3-44,12.4-74.4,3.4l-1.6,5.5C707.3,726,720.2,728.1,732.1,728.1z" transform="matrix(1.9111000035355727, 0, 0, 1.9111000035355727, -294.8379741865055, -812.5294642183619)" style="fill: url('#gradient-13');"/><path id="path-15" d="M793.8,722c11.3,0,20-4.9,20.5-5.2l-2.9-5c-0.8,0.4-18.6,10.5-35.4-1.1l-3.3,4.8&#10;&#9;&#9;&#9;&#9;C780,720.4,787.3,722,793.8,722z" transform="matrix(1.9111000035355727, 0, 0, 1.9111000035355727, -294.8379741865055, -812.5294642183619)" style="fill: url('#gradient-14');"/><path d="M 151.0576171875 271.0377197265625 C 150.79095458984375 269.85107421875 150.32762145996094 269.2577209472656 149.66761779785156 269.2577209472656 C 149.26095581054688 269.2577209472656 148.82095336914062 269.54107666015625 148.34762573242188 270.10772705078125 C 147.86761474609375 270.6810607910156 147.41761779785156 271.41107177734375 146.99761962890625 272.2977294921875 C 146.04428100585938 274.37774658203125 145.53762817382812 276.417724609375 145.4776153564453 278.417724609375 C 145.4776153564453 279.417724609375 145.62428283691406 280.12774658203125 145.91761779785156 280.5477294921875 C 146.21762084960938 280.9743957519531 146.5609588623047 281.187744140625 146.94761657714844 281.187744140625 C 147.34095764160156 281.187744140625 147.71095275878906 281.1044006347656 148.0576171875 280.937744140625 C 148.39761352539062 280.77105712890625 148.70095825195312 280.5477294921875 148.96762084960938 280.2677307128906 C 149.5942840576172 279.6144104003906 149.92095947265625 278.841064453125 149.94761657714844 277.9477233886719 L 147.39761352539062 278.3277282714844 L 147.84762573242188 275.9577331542969 C 150.04762268066406 275.677734375 152.0209503173828 275.3810729980469 153.7676239013672 275.0677185058594 C 153.66094970703125 276.69439697265625 153.34095764160156 278.1110534667969 152.8076171875 279.3177185058594 C 152.2809600830078 280.53106689453125 151.644287109375 281.5444030761719 150.89761352539062 282.35772705078125 C 150.15762329101562 283.17108154296875 149.3576202392578 283.78106689453125 148.49761962890625 284.187744140625 C 147.6376190185547 284.5943908691406 146.86761474609375 284.7977294921875 146.1876220703125 284.7977294921875 C 145.5076141357422 284.7977294921875 144.90428161621094 284.667724609375 144.37762451171875 284.4077453613281 C 143.8442840576172 284.1477355957031 143.38095092773438 283.75439453125 142.9876251220703 283.22772216796875 C 142.14761352539062 282.10107421875 141.7276153564453 280.5177307128906 141.7276153564453 278.47772216796875 C 141.7276153564453 276.437744140625 142.0242919921875 274.65106201171875 142.61761474609375 273.11773681640625 C 143.21095275878906 271.591064453125 143.95762634277344 270.31439208984375 144.8576202392578 269.2877197265625 C 145.75096130371094 268.2677307128906 146.71762084960938 267.5077209472656 147.7576141357422 267.0077209472656 C 148.79762268066406 266.5077209472656 149.70095825195312 266.2577209472656 150.46762084960938 266.2577209472656 C 151.23428344726562 266.2577209472656 151.8509521484375 266.3710632324219 152.317626953125 266.59771728515625 C 152.78428649902344 266.82440185546875 153.16761779785156 267.1243896484375 153.46762084960938 267.49774169921875 C 154.0609588623047 268.2177429199219 154.3576202392578 269.187744140625 154.3576202392578 270.4077453613281 L 151.0576171875 271.0377197265625 ZM 162.7938232421875 273.23773193359375 C 162.7938232421875 271.94439697265625 162.4204864501953 271.2977294921875 161.67381286621094 271.2977294921875 C 160.72048950195312 271.2977294921875 159.86048889160156 271.764404296875 159.09381103515625 272.6977233886719 C 158.48048400878906 273.4510803222656 157.9571533203125 274.4743957519531 157.52381896972656 275.7677307128906 C 157.17715454101562 276.83441162109375 157.00381469726562 277.83441162109375 157.00381469726562 278.7677307128906 C 157.00381469726562 279.3944091796875 157.27047729492188 279.8644104003906 157.80381774902344 280.177734375 C 157.9571533203125 280.2843933105469 158.13714599609375 280.3377380371094 158.34381103515625 280.3377380371094 C 159.06381225585938 280.3377380371094 159.7004852294922 280.091064453125 160.25381469726562 279.5977478027344 C 160.80714416503906 279.1110534667969 161.27047729492188 278.5077209472656 161.64381408691406 277.7877197265625 C 162.02381896972656 277.0677185058594 162.31048583984375 276.2977294921875 162.50381469726562 275.47772216796875 C 162.6971435546875 274.6577453613281 162.7938232421875 273.91107177734375 162.7938232421875 273.23773193359375 M 166.12380981445312 271.7577209472656 C 166.12380981445312 272.7110595703125 165.98715209960938 273.7677307128906 165.7138214111328 274.927734375 C 165.44049072265625 276.0810546875 165.0704803466797 277.1444091796875 164.60382080078125 278.11773681640625 C 164.13047790527344 279.08441162109375 163.587158203125 279.9510803222656 162.97381591796875 280.7177429199219 C 162.35382080078125 281.4844055175781 161.7071533203125 282.1310729980469 161.0338134765625 282.6577453613281 C 159.64715576171875 283.7510681152344 158.31381225585938 284.2977294921875 157.0338134765625 284.2977294921875 C 155.9538116455078 284.2977294921875 155.10047912597656 283.9077453613281 154.47381591796875 283.12774658203125 C 153.7871551513672 282.2677307128906 153.44381713867188 281.0177307128906 153.44381713867188 279.37774658203125 C 153.44381713867188 277.5977478027344 153.85714721679688 275.677734375 154.68382263183594 273.61773681640625 C 155.51048278808594 271.5510559082031 156.59715270996094 269.8310546875 157.94381713867188 268.4577331542969 C 159.39715576171875 266.9910583496094 160.9204864501953 266.2577209472656 162.51382446289062 266.2577209472656 C 163.8271484375 266.2577209472656 164.7871551513672 266.7877197265625 165.39381408691406 267.84771728515625 C 165.88047790527344 268.7077331542969 166.12380981445312 270.0110778808594 166.12380981445312 271.7577209472656 ZM 171.83938598632812 283.8277282714844 C 170.63938903808594 279.8810729980469 170.01605224609375 277.6243896484375 169.96939086914062 277.0577392578125 L 169.65939331054688 277.1577453613281 C 169.5393829345703 277.8710632324219 169.35272216796875 278.8710632324219 169.09939575195312 280.1577453613281 C 168.85272216796875 281.437744140625 168.6560516357422 282.4610595703125 168.50938415527344 283.22772216796875 L 164.619384765625 284.22772216796875 C 166.2460479736328 276.36773681640625 167.23939514160156 270.79107666015625 167.59939575195312 267.49774169921875 C 169.4127197265625 266.937744140625 171.44271850585938 266.6577453613281 173.68939208984375 266.6577453613281 C 175.38272094726562 266.6577453613281 176.38272094726562 267.2410583496094 176.68939208984375 268.4077453613281 C 176.78271484375 268.7677307128906 176.8293914794922 269.2143859863281 176.8293914794922 269.74774169921875 C 176.8293914794922 270.28106689453125 176.72271728515625 270.8544006347656 176.50938415527344 271.4677429199219 C 176.2893829345703 272.0877380371094 175.9927215576172 272.677734375 175.619384765625 273.23773193359375 C 174.8327178955078 274.37774658203125 173.869384765625 275.25439453125 172.72938537597656 275.86773681640625 C 173.3427276611328 277.1744079589844 173.88604736328125 278.41107177734375 174.35939025878906 279.5777282714844 C 174.83938598632812 280.744384765625 175.2427215576172 281.7243957519531 175.5693817138672 282.5177307128906 L 171.83938598632812 283.8277282714844 M 172.0793914794922 269.97772216796875 L 171.0493927001953 270.0077209472656 L 170.26939392089844 273.8277282714844 C 170.89605712890625 273.7610778808594 171.68605041503906 273.3610534667969 172.63938903808594 272.62774658203125 C 173.6260528564453 271.8810729980469 174.119384765625 271.264404296875 174.119384765625 270.7777404785156 C 174.119384765625 270.32440185546875 173.68939208984375 270.0677185058594 172.8293914794922 270.0077209472656 C 172.5760498046875 269.98773193359375 172.3260498046875 269.97772216796875 172.0793914794922 269.97772216796875 ZM 182.24313354492188 266.8177490234375 C 180.463134765625 275.87774658203125 179.37979125976562 281.5177307128906 178.99313354492188 283.73773193359375 C 178.55313110351562 283.73773193359375 177.7931365966797 283.8077392578125 176.713134765625 283.9477233886719 C 175.63980102539062 284.0877380371094 175.08645629882812 284.167724609375 175.05313110351562 284.187744140625 C 175.55313110351562 282.3743896484375 176.0131378173828 280.3977355957031 176.43313598632812 278.2577209472656 C 177.40646362304688 273.3644104003906 178.09312438964844 269.74774169921875 178.49313354492188 267.4077453613281 L 182.24313354492188 266.8177490234375 Z" transform="matrix(17.873397827148438, 0, 0, 17.873397827148438, -2460.9326171875, -4461.00048828125)" style="fill: rgb(29, 32, 222); white-space: pre; color: rgb(51, 51, 51);"/><path d="M 971.1534423828125 239.09556579589844 L 970.1934204101562 242.5355682373047 C 969.8334350585938 242.58224487304688 969.416748046875 242.63890075683594 968.9434204101562 242.70556640625 C 968.4634399414062 242.7655792236328 967.9901123046875 242.82223510742188 967.5234375 242.8755645751953 C 967.0501098632812 242.93557739257812 966.5634155273438 242.99557495117188 966.0634155273438 243.05557250976562 C 966.7100830078125 240.9289093017578 967.25341796875 239.13223266601562 967.6934204101562 237.6655731201172 C 968.1400756835938 236.1988983154297 968.50341796875 234.9922332763672 968.783447265625 234.0455780029297 C 969.0701293945312 233.09890747070312 969.35009765625 232.1622314453125 969.6234130859375 231.23556518554688 C 969.8967895507812 230.30224609375 970.1600952148438 229.40223693847656 970.4134521484375 228.5355682373047 C 970.6734619140625 227.6688995361328 970.9034423828125 226.87557983398438 971.1034545898438 226.15557861328125 C 973.9967651367188 225.95556640625 976.2000732421875 225.70556640625 977.7134399414062 225.40557861328125 C 977.5734252929688 226.95223999023438 977.456787109375 228.78224182128906 977.3634643554688 230.89556884765625 C 977.1634521484375 235.09556579589844 976.993408203125 238.96890258789062 976.8534545898438 242.5155792236328 C 976.380126953125 242.59556579589844 975.9201049804688 242.6655731201172 975.4734497070312 242.72557067871094 C 975.033447265625 242.7855682373047 974.5734252929688 242.85557556152344 974.0934448242188 242.93557739257812 C 973.6201171875 243.0155792236328 973.186767578125 243.0855712890625 972.79345703125 243.14556884765625 C 972.966796875 241.64556884765625 973.1167602539062 240.2955780029297 973.243408203125 239.09556579589844 L 971.1534423828125 239.09556579589844 M 971.7134399414062 236.70556640625 L 973.4534301757812 236.5855712890625 C 973.4534301757812 236.4922332763672 973.4634399414062 236.33224487304688 973.4834594726562 236.10557556152344 C 973.5101318359375 235.87890625 973.5367431640625 235.61557006835938 973.5634155273438 235.31556701660156 C 973.6901245117188 233.64891052246094 973.8234252929688 232.09556579589844 973.9634399414062 230.65557861328125 L 974.1334228515625 228.56556701660156 L 973.75341796875 228.59556579589844 L 971.7134399414062 236.70556640625 Z" transform="matrix(18.76427459716797, 0, 0, 18.76427459716797, -16860.6640625, -3980.3740234375)" style="fill: rgb(29, 32, 222); white-space: pre; color: rgb(51, 51, 51);"/></svg>